#define sample_buffer_width 1024
#define sample_buffer_height 2
static unsigned char sample_buffer_bits[] = {
   0xff, 0xff, 0xff, 0xff, 0xff, 0xff, 0xff, 0xff, 0xff, 0xff, 0xff, 0xff,
   0xff, 0xff, 0xff, 0xff, 0xff, 0xff, 0xff, 0xff, 0xff, 0xff, 0xff, 0xff,
   0xff, 0xff, 0xaf, 0xdd, 0xff, 0xff, 0xff, 0xff, 0xff, 0xee, 0x6e, 0x5b,
   0x55, 0x55, 0xab, 0xd5, 0xff, 0xef, 0xdd, 0x6d, 0xab, 0x56, 0xb5, 0xdb,
   0xb6, 0x6d, 0x55, 0x55, 0x95, 0x52, 0x95, 0x24, 0x49, 0x24, 0x22, 0x00,
   0x00, 0x22, 0x00, 0x00, 0x00, 0x00, 0x00, 0x00, 0x00, 0x00, 0x00, 0x00,
   0x00, 0x00, 0x00, 0x00, 0x00, 0x00, 0x00, 0x00, 0x00, 0x00, 0x00, 0x00,
   0x00, 0x00, 0x11, 0x21, 0x92, 0x24, 0x55, 0x55, 0x55, 0xdb, 0xb6, 0xfd,
   0xff, 0xff, 0xff, 0xff, 0xff, 0xff, 0xff, 0xff, 0x02, 0x00, 0x00, 0x00,
   0x00, 0x00, 0x00, 0x00, 0x00, 0x00, 0x00, 0x00, 0x00, 0x00, 0x00, 0x00,
   0x00, 0x00, 0x00, 0x00, 0x00, 0x00, 0x00, 0x00, 0x00, 0x00, 0xfd, 0xff,
   0xff, 0x55, 0xff, 0xff, 0xff, 0xff, 0xfe, 0xff, 0xff, 0xff, 0xff, 0xff,
   0xdd, 0xfe, 0xff, 0xdf, 0xb6, 0xdd, 0xad, 0xaa, 0x4a, 0x05, 0x00, 0x00,
   0x00, 0x00, 0x00, 0x0a, 0x00, 0x00, 0xa8, 0xaa, 0x24, 0x55, 0xbd, 0xfe,
   0xff, 0x15, 0xf5, 0xff, 0xff, 0x7d, 0xb7, 0xb6, 0x55, 0x95, 0x4a, 0x00,
   0x10, 0x00, 0x00, 0x00, 0x88, 0x44, 0x44, 0x55, 0x55, 0x84, 0x08, 0x00,
   0x88, 0x04, 0x00, 0x00, 0x00, 0x55, 0x09, 0x00, 0x10, 0x49, 0x12, 0x55,
   0x02, 0x00, 0x00, 0x00, 0x00, 0x00, 0x00, 0x00, 0x00, 0x00, 0x00, 0x00,
   0x00, 0x00, 0x00, 0x00, 0x00, 0x00, 0x00, 0x00, 0x00, 0x00, 0x00, 0x00,
   0x00, 0x00, 0x00, 0x00, 0x00, 0x00, 0x00, 0x00, 0xa2, 0x2a, 0x00, 0x00,
   0x00, 0x00, 0x00, 0x00, 0x00, 0x00, 0x00, 0x00, 0x00, 0x00, 0x00, 0x00,
   0x00, 0x00, 0x00, 0x00 };
